<?xml version="1.0" encoding="utf-8"?>
<!-- Svg Vector Icons : http://www.onlinewebfonts.com/icon -->
<!DOCTYPE svg PUBLIC "-//W3C//DTD SVG 1.1//EN" "http://www.w3.org/Graphics/SVG/1.1/DTD/svg11.dtd">
<svg version="1.1" xmlns="http://www.w3.org/2000/svg" xmlns:xlink="http://www.w3.org/1999/xlink" x="0px" y="0px" viewBox="0 0 1000 1000" enable-background="new 0 0 1000 1000" xml:space="preserve">
<metadata> Svg Vector Icons : http://www.onlinewebfonts.com/icon </metadata>
<g><path d="M360,220v-70h280v70H360z M167.5,220h-35C65.2,220,10,275.2,10,342.5v455C10,864.8,65.2,920,132.5,920h35V220z M780,220h-70v-87.5c0-29-23.5-52.5-52.5-52.5h-315c-29,0-52.5,23.5-52.5,52.5V220h-70v700h560V220z M990,342.5c0-67.3-55.2-122.5-122.5-122.5h-35v700h35c67.3,0,122.5-55.2,122.5-122.5V342.5z"/></g>
</svg>